# xmcd
#
# Track frame offsets: 
#        150
#        13004
#        29889
#        44425
#        51768
#        66457
#        88597
#        103987
#        113900
#        141198
#        149055
#        169609
#        182310
#        206608
#
# Disc length: 3473 seconds
#
# Revision: 0
# Processed by: cddbd v1.5.2PL0 Copyright (c) Steve Scherf et al.
# Submitted via: ExactAudioCopyFreeDBPlugin 1.0
#
DISCID=d40d8f0e
DTITLE=Rebel Son - Guitar Man
DYEAR=2011
DGENRE=Shockabilly
TTITLE0=Honky Tonk Doll
TTITLE1=Guitar Man
TTITLE2=She Never Did Nothin'
TTITLE3=I'll Be Back Again
TTITLE4=Lady Of The Night
TTITLE5=What I Have At Home
TTITLE6=From Now On
TTITLE7=One More Song
TTITLE8=House Of The Rising Sun
TTITLE9=Grave Of The Unknown Soldier
TTITLE10=She Means More Than Anything To Me
TTITLE11=Mary Emma And Demsey
TTITLE12=When All's Been Done And Said
TTITLE13=The Ballad Of Buford Johnson
EXTD=
EXTT0=
EXTT1=
EXTT2=
EXTT3=
EXTT4=
EXTT5=
EXTT6=
EXTT7=
EXTT8=
EXTT9=
EXTT10=
EXTT11=
EXTT12=
EXTT13=
PLAYORDER=
